<svg width="1277" height="1277" viewBox="0 0 1277 1277" fill="none" xmlns="http://www.w3.org/2000/svg">
<g clip-path="url(#clip0_253_16)">
<rect width="1277" height="1277" fill="black"/>
<path d="M378.065 801.235C400.36 827.687 411.508 857.351 411.508 890.228C410.752 928.016 397.715 959.759 372.396 985.455C347.456 1010.77 317.036 1023.43 281.136 1023.43H132.06C105.607 1023.43 90.114 1016.25 85.5793 1001.89C83.312 995.469 82.1783 985.644 82.1783 972.418V657.827C82.1783 648.757 82.3673 642.144 82.7452 637.988C83.5009 633.831 85.3904 628.918 88.4135 623.25C93.7039 613.047 108.442 607.945 132.626 607.945H275.468C310.234 607.945 339.331 620.038 362.76 644.223C387.323 668.785 399.604 698.261 399.604 732.648C399.604 757.589 392.424 780.451 378.065 801.235ZM311.178 884.559C311.178 875.49 310.045 868.31 307.777 863.02C305.888 857.729 302.487 853.95 297.574 851.683C290.017 848.66 279.436 847.148 265.832 847.148C252.228 847.148 242.025 844.503 235.223 839.213C228.421 833.922 225.02 823.153 225.02 806.903C225.02 790.276 228.421 779.318 235.223 774.027C242.403 768.737 254.117 766.092 270.366 766.092C285.482 766.092 294.551 762.124 297.574 754.188C298.708 750.031 299.275 743.229 299.275 733.782C299.275 724.335 296.063 717.722 289.639 713.943C283.593 710.164 274.334 708.275 261.864 708.275H182.508V923.104H275.468C299.275 923.104 311.178 910.256 311.178 884.559ZM766.619 953.713C772.287 967.317 775.121 977.142 775.121 983.188C775.121 997.548 763.407 1009.64 739.978 1019.47C727.885 1024.76 718.06 1027.4 710.502 1027.4C703.323 1027.4 697.276 1025.7 692.364 1022.3C687.829 1018.52 684.428 1014.74 682.161 1010.96C678.382 1003.78 663.644 969.584 637.948 908.366L620.376 909.5H548.955V973.552C548.955 982.243 548.577 988.856 547.822 993.391C547.444 997.548 545.743 1002.46 542.72 1008.13C537.43 1018.33 522.692 1023.43 498.507 1023.43C472.055 1023.43 456.562 1016.44 452.027 1002.46C449.76 996.036 448.626 986.211 448.626 972.985V658.394C448.626 649.702 448.815 643.278 449.193 639.121C449.949 634.587 451.838 629.485 454.861 623.817C460.152 613.614 474.889 608.512 499.074 608.512H621.51C654.764 608.512 687.073 620.605 718.438 644.79C733.554 656.504 746.024 672.375 755.849 692.403C765.674 712.431 770.587 734.727 770.587 759.29C770.587 801.991 756.416 837.134 728.074 864.72C736.388 884.748 749.236 914.413 766.619 953.713ZM548.955 809.171H621.51C632.469 809.171 643.427 805.014 654.386 796.7C665.345 788.387 670.824 775.917 670.824 759.29C670.824 742.663 665.345 730.192 654.386 721.879C643.427 713.187 632.091 708.842 620.376 708.842H548.955V809.171ZM995.672 603.411C1051.6 603.411 1100.16 623.628 1141.35 664.062C1182.54 704.496 1203.13 754.755 1203.13 814.839C1203.13 874.545 1183.48 925.56 1144.18 967.884C1104.88 1009.83 1056.51 1030.8 999.073 1030.8C941.634 1030.8 892.698 1010.02 852.264 968.45C812.207 926.883 792.179 877.38 792.179 819.941C792.179 788.576 797.848 759.29 809.184 732.082C820.521 704.496 835.636 681.445 854.531 662.928C873.425 644.412 895.154 629.863 919.716 619.282C944.279 608.701 969.598 603.411 995.672 603.411ZM892.509 817.106C892.509 850.738 903.278 878.135 924.818 899.297C946.735 920.081 971.109 930.473 997.939 930.473C1024.77 930.473 1048.95 920.27 1070.49 899.864C1092.03 879.458 1102.8 852.061 1102.8 817.673C1102.8 783.285 1091.84 755.7 1069.93 734.916C1048.39 714.132 1024.2 703.74 997.372 703.74C970.542 703.74 946.358 714.321 924.818 735.483C903.278 756.266 892.509 783.474 892.509 817.106Z" fill="url(#paint0_linear_253_16)"/>
<path d="M90.19 221.899H327.362C336.462 221.899 343.145 223.037 347.41 225.312C351.676 227.302 354.52 230.573 355.942 235.123C357.364 239.673 358.075 245.645 358.075 253.039C358.075 260.433 357.364 266.405 355.942 270.955C354.52 275.22 352.103 278.206 348.69 279.913C343.571 282.472 336.32 283.752 326.935 283.752H245.461V498.315C245.461 504.856 245.176 509.69 244.608 512.818C244.323 515.947 243.043 519.644 240.768 523.909C238.778 527.891 235.081 530.734 229.678 532.441C224.274 534.147 217.165 535 208.349 535C199.534 535 192.424 534.147 187.021 532.441C181.902 530.734 178.205 527.891 175.93 523.909C173.939 519.644 172.66 515.947 172.091 512.818C171.807 509.406 171.664 504.429 171.664 497.889V283.752H89.7634C80.6633 283.752 73.9804 282.756 69.7147 280.766C65.4491 278.491 62.6053 275.078 61.1834 270.528C59.7615 265.978 59.0506 260.006 59.0506 252.612C59.0506 245.218 59.7615 239.389 61.1834 235.123C62.6053 230.573 65.0225 227.445 68.435 225.738C73.5539 223.179 80.8055 221.899 90.19 221.899ZM457.228 459.498H588.611C595.152 459.498 599.986 459.782 603.114 460.351C606.527 460.635 610.366 461.915 614.632 464.19C622.31 468.171 626.149 479.262 626.149 497.462C626.149 517.369 620.888 529.028 610.366 532.441C605.532 534.147 598.138 535 588.184 535H419.264C399.357 535 387.698 529.597 384.285 518.79C382.579 514.24 381.726 506.989 381.726 497.035V259.864C381.726 245.361 384.427 235.549 389.83 230.431C395.234 225.027 405.471 222.326 420.543 222.326H588.611C595.152 222.326 599.986 222.61 603.114 223.179C606.527 223.463 610.366 224.743 614.632 227.018C622.31 230.999 626.149 242.09 626.149 260.29C626.149 280.197 620.888 291.856 610.366 295.269C605.532 296.975 598.138 297.828 588.184 297.828H457.228V340.912H541.689C548.229 340.912 553.064 341.196 556.192 341.765C559.604 342.049 563.444 343.329 567.709 345.604C575.387 349.585 579.227 360.676 579.227 378.876C579.227 398.783 573.823 410.442 563.017 413.855C558.183 415.561 550.789 416.414 540.835 416.414H457.228V459.498ZM849.114 453.099L856.792 447.554C866.461 441.866 873.286 439.022 877.267 439.022C886.083 439.022 895.61 446.985 905.847 462.91C912.104 472.863 915.232 480.826 915.232 486.798C915.232 492.77 913.241 497.746 909.26 501.728C905.563 505.709 901.155 509.264 896.036 512.392C890.918 515.52 885.941 518.506 881.106 521.35C876.556 524.194 867.03 527.891 852.526 532.441C838.023 536.991 823.946 539.266 810.296 539.266C796.93 539.266 783.28 537.559 769.346 534.147C755.696 530.45 741.477 524.478 726.689 516.231C712.186 507.7 699.104 497.462 687.445 485.518C675.785 473.29 666.116 457.791 658.438 439.022C651.044 419.969 647.347 399.351 647.347 377.17C647.347 354.988 651.044 334.94 658.438 317.024C665.832 298.824 675.216 283.894 686.592 272.234C698.251 260.29 711.475 250.337 726.262 242.375C754.131 227.018 782.143 219.34 810.296 219.34C823.662 219.34 837.17 221.473 850.82 225.738C864.755 229.72 875.277 233.843 882.386 238.109L892.624 244.081C897.743 247.209 901.724 249.768 904.568 251.759C911.962 257.731 915.658 264.556 915.658 272.234C915.658 279.628 912.672 287.449 906.701 295.696C895.61 311.052 885.657 318.73 876.841 318.73C871.722 318.73 864.47 315.602 855.086 309.346C843.142 299.677 827.217 294.842 807.31 294.842C788.826 294.842 770.625 301.241 752.71 314.038C744.178 320.294 737.069 329.11 731.381 340.485C725.694 351.86 722.85 364.799 722.85 379.303C722.85 393.522 725.694 406.319 731.381 417.694C737.069 429.069 744.32 438.027 753.136 444.568C770.483 457.08 788.541 463.337 807.31 463.337C816.126 463.337 824.373 462.199 832.051 459.924C840.014 457.649 845.701 455.374 849.114 453.099ZM1136.5 233.843C1138.77 229.578 1142.61 226.592 1148.01 224.885C1153.42 223.179 1160.24 222.326 1168.49 222.326C1176.74 222.326 1183.28 223.037 1188.11 224.459C1192.95 225.881 1196.64 227.587 1199.2 229.578C1201.76 231.568 1203.75 234.412 1205.17 238.109C1206.6 242.943 1207.31 250.337 1207.31 260.29V497.035C1207.31 503.576 1207.02 508.553 1206.45 511.965C1206.17 515.094 1204.89 518.79 1202.62 523.056C1198.63 530.734 1187.54 534.573 1169.34 534.573C1149.44 534.573 1137.78 529.312 1134.36 518.79C1132.66 513.956 1131.8 506.562 1131.8 496.609V410.016H1018.76V497.035C1018.76 503.576 1018.48 508.553 1017.91 511.965C1017.63 515.094 1016.35 518.79 1014.07 523.056C1010.09 530.734 999 534.573 980.8 534.573C960.893 534.573 949.234 529.312 945.821 518.79C944.115 513.956 943.262 506.562 943.262 496.609V259.864C943.262 253.323 943.404 248.489 943.689 245.361C944.257 241.948 945.679 238.109 947.954 233.843C951.936 226.165 963.026 222.326 981.227 222.326C1001.13 222.326 1012.93 227.587 1016.63 238.109C1018.05 242.943 1018.76 250.337 1018.76 260.29V347.31H1131.8V259.864C1131.8 253.323 1131.95 248.489 1132.23 245.361C1132.8 241.948 1134.22 238.109 1136.5 233.843Z" fill="url(#paint1_linear_253_16)"/>
</g>
<defs>
<linearGradient id="paint0_linear_253_16" x1="638.515" y1="472" x2="638.515" y2="1158" gradientUnits="userSpaceOnUse">
<stop stop-color="#189F0E"/>
<stop offset="0.567309" stop-color="#2B197E"/>
</linearGradient>
<linearGradient id="paint1_linear_253_16" x1="623.201" y1="103.822" x2="638.498" y2="693.051" gradientUnits="userSpaceOnUse">
<stop offset="0.298071" stop-color="#9434AA"/>
<stop offset="1" stop-color="#189F0E"/>
</linearGradient>
<clipPath id="clip0_253_16">
<rect width="1277" height="1277" fill="white"/>
</clipPath>
</defs>
</svg>
